<?xml version="1.0" standalone="no"?>
<!DOCTYPE svg PUBLIC "-//W3C//DTD SVG 20010904//EN"
 "http://www.w3.org/TR/2001/REC-SVG-20010904/DTD/svg10.dtd">
<svg version="1.0" xmlns="http://www.w3.org/2000/svg"
 width="256.000000pt" height="256.000000pt" viewBox="0 0 256.000000 256.000000"
 preserveAspectRatio="xMidYMid meet">

<g transform="translate(0.000000,256.000000) scale(0.100000,-0.100000)"
fill="#000000" stroke="none">
<path d="M101 2512 c-19 -9 -48 -34 -65 -55 l-31 -39 -3 -221 c-3 -215 -2
-223 20 -267 67 -131 249 -128 312 4 22 46 24 439 2 489 -39 91 -150 133 -235
89z m126 -104 c23 -21 23 -25 23 -225 0 -203 0 -204 -25 -228 -13 -14 -36 -25
-50 -25 -14 0 -37 11 -50 25 -25 24 -25 25 -25 223 0 186 1 201 21 226 26 33
73 35 106 4z"/>
<path d="M638 2441 c-49 -49 -88 -96 -88 -105 0 -20 35 -56 55 -56 8 0 33 16
55 36 l40 36 0 -211 0 -211 -58 0 c-44 0 -63 -5 -75 -18 -22 -24 -21 -38 3
-62 18 -18 33 -20 156 -20 74 0 144 5 155 10 22 12 26 62 6 78 -6 6 -28 12
-47 14 l-35 3 -3 284 c-1 189 -6 289 -13 298 -27 32 -62 15 -151 -76z"/>
<path d="M1192 2437 c-95 -98 -102 -113 -64 -144 24 -20 39 -16 81 22 21 19
41 35 45 35 3 0 5 -93 4 -207 l-3 -208 -60 -3 c-32 -2 -65 -8 -72 -14 -20 -16
-16 -66 6 -78 11 -5 81 -10 155 -10 123 0 138 2 156 20 24 24 24 29 4 58 -11
15 -25 22 -50 22 l-34 0 0 273 c0 294 -4 320 -50 325 -21 2 -44 -16 -118 -91z"/>
<path d="M1752 2509 c-28 -14 -51 -36 -67 -64 -25 -41 -25 -46 -25 -258 0
-223 4 -254 43 -296 28 -30 93 -60 131 -61 48 0 115 38 144 83 27 40 27 42 30
246 4 223 -1 260 -45 312 -51 61 -134 76 -211 38z m134 -104 l25 -25 -3 -205
c-3 -223 -5 -229 -63 -241 -22 -4 -38 0 -58 16 l-27 21 0 210 c0 196 1 210 20
229 28 28 75 26 106 -5z"/>
<path d="M2315 2516 c-37 -17 -80 -62 -94 -99 -7 -17 -11 -113 -11 -236 0
-195 1 -209 23 -251 66 -132 248 -129 308 4 16 36 19 68 19 241 0 110 -5 216
-10 235 -11 41 -61 94 -103 109 -38 15 -95 13 -132 -3z m124 -112 c20 -25 21
-40 21 -226 0 -198 0 -199 -25 -223 -13 -14 -36 -25 -50 -25 -14 0 -37 11 -50
25 -25 24 -25 25 -25 223 0 186 1 201 21 226 15 19 30 26 54 26 24 0 39 -7 54
-26z"/>
<path d="M88 1541 c-91 -92 -102 -115 -70 -144 28 -25 48 -21 92 19 l40 36 0
-211 0 -211 -58 0 c-44 0 -63 -5 -75 -18 -22 -24 -21 -45 1 -65 27 -24 293
-25 316 -1 36 35 7 84 -50 84 l-34 0 0 284 c0 245 -2 287 -16 300 -31 31 -56
18 -146 -73z"/>
<path d="M650 1608 c-88 -45 -100 -85 -100 -328 0 -244 12 -282 101 -328 82
-43 182 -13 228 69 19 34 21 53 21 258 0 240 -2 251 -57 303 -56 53 -122 62
-193 26z m127 -100 c23 -21 23 -25 23 -227 0 -196 -1 -206 -22 -228 -26 -28
-67 -30 -99 -4 -24 19 -24 21 -24 231 0 210 0 212 24 231 31 25 69 24 98 -3z"/>
<path d="M1198 1543 c-89 -90 -105 -122 -76 -151 20 -20 46 -13 87 23 21 19
41 35 45 35 3 0 5 -93 4 -207 l-3 -208 -60 -3 c-68 -4 -85 -14 -85 -51 0 -47
13 -51 172 -51 146 0 148 0 164 25 15 23 15 27 0 50 -12 19 -25 25 -51 25
l-35 0 0 273 c0 294 -4 320 -50 325 -20 2 -43 -16 -112 -85z"/>
<path d="M1748 1543 c-77 -76 -89 -91 -86 -118 2 -22 10 -32 31 -39 24 -9 31
-6 65 27 21 20 41 37 45 37 4 0 7 -94 7 -210 l0 -210 -56 0 c-30 0 -64 -5 -75
-10 -26 -14 -26 -66 0 -80 11 -5 82 -10 159 -10 122 0 141 2 155 18 10 10 17
25 17 34 0 24 -34 48 -68 48 l-32 0 0 278 c0 235 -2 281 -16 300 -26 38 -52
27 -146 -65z"/>
<path d="M2310 1612 c-19 -10 -48 -36 -65 -56 l-30 -38 -3 -226 c-3 -256 0
-268 72 -327 33 -26 46 -30 100 -30 54 0 68 4 100 29 68 52 76 83 76 316 0
233 -8 264 -75 315 -48 37 -125 45 -175 17z m125 -107 c25 -24 25 -25 25 -225
0 -200 0 -201 -25 -225 -13 -14 -36 -25 -50 -25 -14 0 -37 11 -50 25 -25 24
-25 25 -25 225 0 200 0 201 25 225 13 14 36 25 50 25 14 0 37 -11 50 -25z"/>
<path d="M92 637 c-50 -51 -92 -100 -92 -109 0 -22 27 -48 51 -48 10 0 37 16
59 36 l40 36 0 -211 0 -211 -53 0 c-82 0 -123 -43 -81 -84 13 -13 42 -16 163
-16 155 0 171 4 171 45 0 30 -31 55 -68 55 l-32 0 0 283 c0 262 -1 285 -18
300 -10 10 -25 17 -33 17 -8 0 -56 -42 -107 -93z"/>
<path d="M653 648 c-103 -101 -110 -111 -88 -144 22 -34 53 -30 97 13 l38 37
0 -212 0 -212 -55 0 c-80 0 -120 -44 -77 -83 16 -14 43 -17 163 -17 157 0 169
4 169 52 0 32 -24 48 -69 48 l-31 0 0 284 c0 245 -2 287 -16 300 -8 9 -22 16
-31 16 -8 0 -54 -37 -100 -82z"/>
<path d="M1199 643 c-67 -65 -89 -93 -89 -113 0 -59 50 -66 100 -15 19 19 38
35 42 35 4 0 8 -94 8 -210 l0 -210 -56 0 c-70 0 -94 -12 -94 -48 0 -48 12 -52
171 -52 141 0 149 1 163 22 9 12 16 26 16 30 0 19 -42 48 -70 48 l-29 0 -3
286 c-3 269 -4 286 -22 300 -11 8 -26 14 -34 14 -8 0 -54 -39 -103 -87z"/>
<path d="M1748 642 c-64 -64 -88 -95 -88 -113 0 -58 51 -65 100 -14 19 19 38
35 42 35 4 0 8 -94 8 -210 l0 -210 -59 0 c-65 0 -91 -15 -91 -54 0 -42 16 -46
171 -46 121 0 150 3 163 16 9 8 16 22 16 30 0 24 -38 54 -70 54 l-30 0 0 280
c0 267 -1 281 -20 300 -11 11 -28 20 -37 20 -9 0 -56 -40 -105 -88z"/>
<path d="M2315 711 c-93 -43 -105 -80 -105 -335 0 -120 4 -216 11 -233 32 -87
139 -135 226 -102 42 15 92 68 103 109 5 19 10 125 10 235 0 251 -13 288 -113
330 -48 20 -83 19 -132 -4z m120 -106 c25 -24 25 -25 25 -223 0 -186 -1 -201
-21 -226 -26 -33 -73 -35 -106 -4 -23 21 -23 25 -23 225 0 203 0 204 25 228
13 14 36 25 50 25 14 0 37 -11 50 -25z"/>
</g>
</svg>
