<?xml version="1.0" encoding="UTF-8" standalone="no"?>
<svg
   version="1.0"
   width="358.000000pt"
   height="350.000000pt"
   viewBox="0 0 358.000000 350.000000"
   preserveAspectRatio="xMidYMid meet"
   id="svg22"
   sodipodi:docname="rpcdiscord.svg"
   inkscape:version="1.1.1 (3bf5ae0d25, 2021-09-20)"
   inkscape:export-filename="/home/roanfranklin/Documentos/GitHub/remf_rpc_discord/icons/rpcdiscord.png"
   inkscape:export-xdpi="96"
   inkscape:export-ydpi="96"
   xmlns:inkscape="http://www.inkscape.org/namespaces/inkscape"
   xmlns:sodipodi="http://sodipodi.sourceforge.net/DTD/sodipodi-0.dtd"
   xmlns="http://www.w3.org/2000/svg"
   xmlns:svg="http://www.w3.org/2000/svg"
   xmlns:rdf="http://www.w3.org/1999/02/22-rdf-syntax-ns#"
   xmlns:cc="http://creativecommons.org/ns#"
   xmlns:dc="http://purl.org/dc/elements/1.1/">
  <metadata
     id="metadata28">
    <rdf:RDF>
      <cc:Work
         rdf:about="">
        <dc:format>image/svg+xml</dc:format>
        <dc:type
           rdf:resource="http://purl.org/dc/dcmitype/StillImage" />
      </cc:Work>
    </rdf:RDF>
  </metadata>
  <defs
     id="defs26">
    <clipPath
       clipPathUnits="userSpaceOnUse"
       id="clipPath828">
      <g
         id="use830"
         inkscape:label="Clip">
        <path
           clip-path="none"
           d="m 355,3391 c -51,-23 -102,-81 -110,-123 -3,-18 -4,-706 -3,-1530 l 3,-1496 31,-39 c 16,-21 48,-47 70,-58 38,-20 59,-20 1214,-20 1087,0 1177,1 1206,17 45,25 92,82 104,129 l 11,41 108,-105 c 89,-87 114,-106 147,-111 51,-9 89,6 137,52 64,62 83,121 56,175 -6,12 -110,121 -231,243 l -220,221 1,94 c 0,83 5,104 35,179 49,121 68,223 68,365 0,138 -16,224 -67,358 l -35,92 -2,695 c -3,683 -3,696 -24,735 -11,22 -40,54 -63,70 l -43,30 -1176,2 c -1122,3 -1179,2 -1217,-16 z m 2385,-887 v -427 l -57,54 c -53,51 -57,56 -54,96 l 3,43 h -67 c -51,0 -77,6 -118,26 -123,63 -296,104 -437,104 -141,0 -314,-41 -437,-104 l -52,-26 v 0 0 l -131,-84 4.3644,-3.4153 v 0 c 0,0 -4.3644,5.4153 -4.3644,3.4153 0,-3 -25,-28 -55,-57 -59,-56 -134,-152 -180,-231 l -27,-48 H 989 850 1128 l -38,-85 -8.7712,-9.8305 c 0,0 8.7712,12.8305 8.7712,9.8305 0,-3 -9,-37 -20,-77 -15,-58 -40,-211 -40,-250 0,-5 -40,-8 -90,-8 l 90,8 v 0 l 10,-88 h -95 95 v -32 c 0,-43 33,-180 59,-246 12,-29 21,-55 21,-57 0,-3 -61,-5 -135,-5 l 135,5 v 0 l 46,-85 h -158 158 l 48,-69 c 49,-73 180,-205 234,-237 18,-10 32,-22 32,-26 0,-4 -174.2709,-28.63022 -3.5593,-0.58475 L 1480,598 v 0 l 285,-117 -192.9746,64.07627 C 1929.1186,401.18644 1686,504 1765,481 c 71,-22 99,-25 245,-25 145,0 175,3 245,24 65,20 107,25 228,28 l 147,3 v 27 c 0,25 2,24 55,-28 l 55,-54 v -78 c 0,-132 144,-118 -1185,-118 -1132,0 -1145,0 -1165,20 -20,20 -20,33 -20,1335 v 1315 h 1185 1185 z m -550,-369 c 36,-9 103,-34 150,-57 70,-34 102,-59 181,-138 83,-82 103,-108 143,-191 25,-52 46,-103 46,-112 0,-15 -13,-17 -115,-17 h -115 v -225 -225 h 105 c 65,0 105,-4 105,-10 0,-6 -13,-36 -29,-68 -90,-179 -250,-311 -451,-373 -108,-34 -293,-34 -400,0 -204,63 -360,192 -456,377 l -36,69 101,3 101,3 v 219 219 l -107,3 c -128,4 -125,-4 -56,138 39,81 59,108 137,185 50,50 116,105 148,123 68,40 177,79 256,92 73,11 208,4 292,-15 z M 2588,602 c 2,-7 -7,-12 -22,-12 -27,0 -35,15 -13,23 17,7 30,3 35,-11 z"
           id="path864"
           style="fill:#2500ff;fill-opacity:1"
           inkscape:connector-curvature="0"
           sodipodi:nodetypes="ccccccsccccccsccccscccccccccccccscsccccccsscccccccsscsscccccscsscccccccsscccccscccsccssssccccccccsscccssccccccccccccccccscc" />
      </g>
    </clipPath>
    <clipPath
       clipPathUnits="userSpaceOnUse"
       id="clipPath828-6">
      <g
         id="use830-7"
         inkscape:label="Clip">
        <path
           clip-path="none"
           d="m 355,3391 c -51,-23 -102,-81 -110,-123 -3,-18 -4,-706 -3,-1530 l 3,-1496 31,-39 c 16,-21 48,-47 70,-58 38,-20 59,-20 1214,-20 1087,0 1177,1 1206,17 45,25 92,82 104,129 l 11,41 108,-105 c 89,-87 114,-106 147,-111 51,-9 89,6 137,52 64,62 83,121 56,175 -6,12 -110,121 -231,243 l -220,221 1,94 c 0,83 5,104 35,179 49,121 68,223 68,365 0,138 -16,224 -67,358 l -35,92 -2,695 c -3,683 -3,696 -24,735 -11,22 -40,54 -63,70 l -43,30 -1176,2 c -1122,3 -1179,2 -1217,-16 z m 2385,-887 v -427 l -57,54 c -53,51 -121,99 -118,139 l 74.7088,-68.4576 -200.7681,75.8729 c 0,0 49.0593,-1.4153 8.0593,18.5847 -123,63 -296,104 -437,104 -141,0 -314,-41 -437,-104 l -52,-26 v 0 0 l -131,-84 4.3644,-3.4153 v 0 c 0,0 -4.3644,5.4153 -4.3644,3.4153 0,-3 -25,-28 -55,-57 -59,-56 -134,-152 -180,-231 l -27,-48 H 989 850 1128 l -38,-85 -8.7712,-9.8305 c 0,0 8.7712,12.8305 8.7712,9.8305 0,-3 -9,-37 -20,-77 -15,-58 -40,-211 -40,-250 0,-5 -40,-8 -90,-8 l 90,8 v 0 l 10,-88 h -95 95 v -32 c 0,-43 33,-180 59,-246 12,-29 21,-55 21,-57 0,-3 -61,-5 -135,-5 l 135,5 v 0 l 46,-85 h -158 158 l 48,-69 c 49,-73 180,-205 234,-237 18,-10 32,-22 32,-26 0,-4 -174.2709,-28.63022 -3.5593,-0.58475 L 1480,598 v 0 l 285,-117 -285,117 c 357.0932,-143.88983 206,-94 285,-117 71,-22 99,-25 245,-25 145,0 175,3 245,24 65,20 236.322,3.94068 298,133 l 13,-23 64,-52 c 0,0 2,24 55,-28 l 55,-54 v -78 c 0,-132 144,-118 -1185,-118 -1132,0 -1145,0 -1165,20 -20,20 -20,33 -20,1335 v 1315 h 1185 1185 z m -550,-369 c 36,-9 103,-34 150,-57 70,-34 102,-59 181,-138 83,-82 103,-108 143,-191 25,-52 46,-103 46,-112 0,-15 -13,-17 -115,-17 h -115 v -225 -225 h 105 c 65,0 105,-4 105,-10 0,-6 -13,-36 -29,-68 -90,-179 -250,-311 -451,-373 -108,-34 -293,-34 -400,0 -204,63 -360,192 -456,377 l -36,69 101,3 101,3 v 219 219 l -107,3 c -128,4 -125,-4 -56,138 39,81 59,108 137,185 50,50 116,105 148,123 68,40 177,79 256,92 73,11 208,4 292,-15 z M 2588,602 c 2,-7 -7,-12 -22,-12 -27,0 -35,15 -13,23 17,7 30,3 35,-11 z"
           id="path970"
           style="fill:#2500ff;fill-opacity:1"
           inkscape:connector-curvature="0"
           sodipodi:nodetypes="ccccccsccccccsccccscccccccccccccscsccccccsscccccccsscsscccccscsscccccccsscccccscccsccssssccccccccsscccssccccccccccccccccscc" />
      </g>
    </clipPath>
    <clipPath
       clipPathUnits="userSpaceOnUse"
       id="clipPath828-6-9">
      <g
         inkscape:label="Clip"
         id="use830-7-1">
        <path
           sodipodi:nodetypes="ccccccsccccccsccccscccccccccccccscsccccccsscccccccsscsscccccscsscccccccsscccccscccsccssssccccccccsscccssccccccccccccccccscc"
           inkscape:connector-curvature="0"
           style="fill:#2500ff;fill-opacity:1"
           id="path195"
           d="m 355,3391 c -51,-23 -102,-81 -110,-123 -3,-18 -4,-706 -3,-1530 l 3,-1496 31,-39 c 16,-21 48,-47 70,-58 38,-20 59,-20 1214,-20 1087,0 1177,1 1206,17 45,25 92,82 104,129 l 11,41 108,-105 c 89,-87 114,-106 147,-111 51,-9 89,6 137,52 64,62 83,121 56,175 -6,12 -110,121 -231,243 l -220,221 1,94 c 0,83 5,104 35,179 49,121 68,223 68,365 0,138 -16,224 -67,358 l -35,92 -2,695 c -3,683 -3,696 -24,735 -11,22 -40,54 -63,70 l -43,30 -1176,2 c -1122,3 -1179,2 -1217,-16 z m 2385,-887 v -427 l -57,54 c -53,51 -121,99 -118,139 l 74.7088,-68.4576 -200.7681,75.8729 c 0,0 49.0593,-1.4153 8.0593,18.5847 -123,63 -296,104 -437,104 -141,0 -314,-41 -437,-104 l -52,-26 v 0 0 l -131,-84 4.3644,-3.4153 v 0 c 0,0 -4.3644,5.4153 -4.3644,3.4153 0,-3 -25,-28 -55,-57 -59,-56 -134,-152 -180,-231 l -27,-48 H 989 850 1128 l -38,-85 -8.7712,-9.8305 c 0,0 8.7712,12.8305 8.7712,9.8305 0,-3 -9,-37 -20,-77 -15,-58 -40,-211 -40,-250 0,-5 -40,-8 -90,-8 l 90,8 v 0 l 10,-88 h -95 95 v -32 c 0,-43 33,-180 59,-246 12,-29 21,-55 21,-57 0,-3 -61,-5 -135,-5 l 135,5 v 0 l 46,-85 h -158 158 l 48,-69 c 49,-73 180,-205 234,-237 18,-10 32,-22 32,-26 0,-4 -174.2709,-28.63022 -3.5593,-0.58475 L 1480,598 v 0 l 285,-117 -285,117 c 357.0932,-143.88983 206,-94 285,-117 71,-22 99,-25 245,-25 145,0 175,3 245,24 65,20 236.322,3.94068 298,133 l 13,-23 64,-52 c 0,0 2,24 55,-28 l 55,-54 v -78 c 0,-132 144,-118 -1185,-118 -1132,0 -1145,0 -1165,20 -20,20 -20,33 -20,1335 v 1315 h 1185 1185 z m -550,-369 c 36,-9 103,-34 150,-57 70,-34 102,-59 181,-138 83,-82 103,-108 143,-191 25,-52 46,-103 46,-112 0,-15 -13,-17 -115,-17 h -115 v -225 -225 h 105 c 65,0 105,-4 105,-10 0,-6 -13,-36 -29,-68 -90,-179 -250,-311 -451,-373 -108,-34 -293,-34 -400,0 -204,63 -360,192 -456,377 l -36,69 101,3 101,3 v 219 219 l -107,3 c -128,4 -125,-4 -56,138 39,81 59,108 137,185 50,50 116,105 148,123 68,40 177,79 256,92 73,11 208,4 292,-15 z M 2588,602 c 2,-7 -7,-12 -22,-12 -27,0 -35,15 -13,23 17,7 30,3 35,-11 z"
           clip-path="none" />
      </g>
    </clipPath>
    <clipPath
       id="clip0">
      <rect
         width="71"
         height="55"
         fill="#ffffff"
         id="rect6"
         x="0"
         y="0" />
    </clipPath>
    <clipPath
       id="clip0-5">
      <rect
         width="71"
         height="55"
         fill="#ffffff"
         id="rect6-9"
         x="0"
         y="0" />
    </clipPath>
  </defs>
  <sodipodi:namedview
     pagecolor="#ffffff"
     bordercolor="#666666"
     borderopacity="1"
     objecttolerance="10"
     gridtolerance="10"
     guidetolerance="10"
     inkscape:pageopacity="0"
     inkscape:pageshadow="2"
     inkscape:window-width="1366"
     inkscape:window-height="713"
     id="namedview24"
     showgrid="false"
     inkscape:zoom="1.0114286"
     inkscape:cx="201.20056"
     inkscape:cy="233.33333"
     inkscape:window-x="0"
     inkscape:window-y="27"
     inkscape:window-maximized="1"
     inkscape:current-layer="g20"
     inkscape:pagecheckerboard="0"
     inkscape:document-units="pt" />
  <g
     transform="translate(0.000000,350.000000) scale(0.100000,-0.100000)"
     fill="#000000"
     stroke="none"
     id="g20">
    <path
       d="m 2964.5779,2497.2447 c -213.7721,90.567 -443.0103,157.2927 -682.6931,195.5093 -4.3649,0.7376 -8.7251,-1.1057 -10.9737,-4.7922 -29.4821,-48.4157 -62.1386,-111.5779 -85.0072,-161.2231 -257.7944,35.6354 -514.266,35.6354 -766.7743,0 -22.8733,50.7488 -56.7156,112.8074 -86.3299,161.2231 -2.2486,3.5635 -6.6088,5.4068 -10.9737,4.7922 -239.5505,-38.0945 -468.78876,-104.8202 -682.6931,-195.5093 -1.85178,-0.7371 -3.43902,-1.9671 -4.49246,-3.5635 C 199.82382,1893.8823 80.709366,1308.8261 139.14293,731.02351 c 0.2644,-2.8264 1.98301,-5.53068 4.3627,-7.2492 286.87958,-194.5244 564.77146,-312.61822 837.50291,-390.89382 4.36491,-1.23 8.98964,0.24426 11.76731,3.56354 64.51475,81.34625 122.02385,167.11966 171.33225,257.32022 2.91,5.28205 0.1323,11.54986 -5.8151,13.63912 -91.2192,31.94967 -178.07808,70.90428 -261.63025,115.14093 -6.60878,3.56354 -7.13786,12.29136 -1.05816,16.46989 17.58247,12.16487 35.16966,24.82261 51.95852,37.60247 3.03748,2.33353 7.27013,2.8264 10.84142,1.35214 548.90197,-231.3941 1143.15357,-231.3941 1685.57907,0 3.5713,1.59639 7.8039,1.10352 10.9737,-1.23001 16.7935,-12.77987 34.376,-25.55973 52.0907,-37.7246 6.0797,-4.17853 5.6829,-12.90635 -0.9258,-16.46989 -83.5522,-45.09591 -170.4111,-83.19126 -261.7625,-115.0188 -5.9475,-2.08927 -8.5929,-8.4792 -5.6829,-13.76125 50.3665,-90.07407 107.8757,-175.84748 171.2,-257.19809 2.6454,-3.44141 7.4024,-4.91567 11.7673,-3.68567 274.0541,78.2756 551.9441,196.36942 838.8238,390.89382 2.5131,1.71852 4.1003,4.30067 4.3649,7.12707 69.9331,668.00322 -117.1346,1248.26152 -495.8947,1762.65772 -0.9259,1.7185 -2.5084,2.9485 -4.3602,3.6856 z M 1246.0778,1082.845 c -165.2573,0 -301.42463,140.0856 -301.42463,312.1253 0,172.0397 133.52663,312.1254 301.42463,312.1254 169.2159,0 304.0653,-141.3157 301.4199,-312.1254 0,-172.0397 -133.5267,-312.1253 -301.4199,-312.1253 z m 1114.4652,0 c -165.2526,0 -301.4199,140.0856 -301.4199,312.1253 0,172.0397 133.5219,312.1254 301.4199,312.1254 169.2206,0 304.0652,-141.3157 301.4246,-312.1254 0,-172.0397 -132.204,-312.1253 -301.4246,-312.1253 z"
       fill="#23272a"
       id="path2"
       style="mix-blend-mode:multiply;fill:#ffffff;fill-opacity:1;fill-rule:evenodd;stroke:#000000;stroke-width:45.39;stroke-linecap:butt;stroke-linejoin:round;stroke-miterlimit:4;stroke-dasharray:none;stroke-opacity:1;paint-order:stroke markers fill"
       inkscape:export-filename="/home/roanfranklin/Documentos/GitHub/remf_rpc_discord/icons/rpcdiscord.png"
       inkscape:export-xdpi="96"
       inkscape:export-ydpi="96" />
    <text
       xml:space="preserve"
       style="font-style:normal;font-weight:normal;font-size:400px;line-height:0.95;font-family:sans-serif;mix-blend-mode:multiply;fill:#ffffff;fill-opacity:1;fill-rule:evenodd;stroke:#000000;stroke-width:45.39;stroke-linejoin:round;stroke-miterlimit:4;stroke-dasharray:none;stroke-opacity:1;paint-order:stroke markers fill"
       x="216.1394"
       y="-2780.4128"
       id="text2251"
       transform="scale(1,-1)"
       inkscape:export-filename="/home/roanfranklin/Documentos/GitHub/remf_rpc_discord/icons/rpcdiscord.png"
       inkscape:export-xdpi="96"
       inkscape:export-ydpi="96"><tspan
         sodipodi:role="line"
         id="tspan2249"
         style="font-style:normal;font-variant:normal;font-weight:bold;font-stretch:normal;font-size:400px;font-family:sans-serif;-inkscape-font-specification:'sans-serif Bold';fill:#ffffff;fill-rule:evenodd;stroke:#000000;stroke-width:45.39;stroke-linejoin:round;stroke-miterlimit:4;stroke-dasharray:none;stroke-opacity:1;paint-order:stroke markers fill;fill-opacity:1"
         x="216.1394"
         y="-2780.4128">Rich Presence</tspan></text>
  </g>
</svg>
