<?xml version="1.0" encoding="UTF-8" standalone="no"?>
<svg
   version="1.0"
   width="358.000000pt"
   height="350.000000pt"
   viewBox="0 0 358.000000 350.000000"
   preserveAspectRatio="xMidYMid meet"
   id="svg22"
   sodipodi:docname="rpcdiscord_status.svg"
   inkscape:version="1.1.1 (3bf5ae0d25, 2021-09-20)"
   inkscape:export-filename="/home/roanfranklin/Documentos/GitHub/remf_rpc_discord/icons/rpcdiscord.png"
   inkscape:export-xdpi="96"
   inkscape:export-ydpi="96"
   xmlns:inkscape="http://www.inkscape.org/namespaces/inkscape"
   xmlns:sodipodi="http://sodipodi.sourceforge.net/DTD/sodipodi-0.dtd"
   xmlns="http://www.w3.org/2000/svg"
   xmlns:svg="http://www.w3.org/2000/svg"
   xmlns:rdf="http://www.w3.org/1999/02/22-rdf-syntax-ns#"
   xmlns:cc="http://creativecommons.org/ns#"
   xmlns:dc="http://purl.org/dc/elements/1.1/">
  <metadata
     id="metadata28">
    <rdf:RDF>
      <cc:Work
         rdf:about="">
        <dc:format>image/svg+xml</dc:format>
        <dc:type
           rdf:resource="http://purl.org/dc/dcmitype/StillImage" />
      </cc:Work>
    </rdf:RDF>
  </metadata>
  <defs
     id="defs26">
    <clipPath
       clipPathUnits="userSpaceOnUse"
       id="clipPath828">
      <g
         id="use830"
         inkscape:label="Clip">
        <path
           clip-path="none"
           d="m 355,3391 c -51,-23 -102,-81 -110,-123 -3,-18 -4,-706 -3,-1530 l 3,-1496 31,-39 c 16,-21 48,-47 70,-58 38,-20 59,-20 1214,-20 1087,0 1177,1 1206,17 45,25 92,82 104,129 l 11,41 108,-105 c 89,-87 114,-106 147,-111 51,-9 89,6 137,52 64,62 83,121 56,175 -6,12 -110,121 -231,243 l -220,221 1,94 c 0,83 5,104 35,179 49,121 68,223 68,365 0,138 -16,224 -67,358 l -35,92 -2,695 c -3,683 -3,696 -24,735 -11,22 -40,54 -63,70 l -43,30 -1176,2 c -1122,3 -1179,2 -1217,-16 z m 2385,-887 v -427 l -57,54 c -53,51 -57,56 -54,96 l 3,43 h -67 c -51,0 -77,6 -118,26 -123,63 -296,104 -437,104 -141,0 -314,-41 -437,-104 l -52,-26 v 0 0 l -131,-84 4.3644,-3.4153 v 0 c 0,0 -4.3644,5.4153 -4.3644,3.4153 0,-3 -25,-28 -55,-57 -59,-56 -134,-152 -180,-231 l -27,-48 H 989 850 1128 l -38,-85 -8.7712,-9.8305 c 0,0 8.7712,12.8305 8.7712,9.8305 0,-3 -9,-37 -20,-77 -15,-58 -40,-211 -40,-250 0,-5 -40,-8 -90,-8 l 90,8 v 0 l 10,-88 h -95 95 v -32 c 0,-43 33,-180 59,-246 12,-29 21,-55 21,-57 0,-3 -61,-5 -135,-5 l 135,5 v 0 l 46,-85 h -158 158 l 48,-69 c 49,-73 180,-205 234,-237 18,-10 32,-22 32,-26 0,-4 -174.2709,-28.63022 -3.5593,-0.58475 L 1480,598 v 0 l 285,-117 -192.9746,64.07627 C 1929.1186,401.18644 1686,504 1765,481 c 71,-22 99,-25 245,-25 145,0 175,3 245,24 65,20 107,25 228,28 l 147,3 v 27 c 0,25 2,24 55,-28 l 55,-54 v -78 c 0,-132 144,-118 -1185,-118 -1132,0 -1145,0 -1165,20 -20,20 -20,33 -20,1335 v 1315 h 1185 1185 z m -550,-369 c 36,-9 103,-34 150,-57 70,-34 102,-59 181,-138 83,-82 103,-108 143,-191 25,-52 46,-103 46,-112 0,-15 -13,-17 -115,-17 h -115 v -225 -225 h 105 c 65,0 105,-4 105,-10 0,-6 -13,-36 -29,-68 -90,-179 -250,-311 -451,-373 -108,-34 -293,-34 -400,0 -204,63 -360,192 -456,377 l -36,69 101,3 101,3 v 219 219 l -107,3 c -128,4 -125,-4 -56,138 39,81 59,108 137,185 50,50 116,105 148,123 68,40 177,79 256,92 73,11 208,4 292,-15 z M 2588,602 c 2,-7 -7,-12 -22,-12 -27,0 -35,15 -13,23 17,7 30,3 35,-11 z"
           id="path864"
           style="fill:#2500ff;fill-opacity:1"
           inkscape:connector-curvature="0"
           sodipodi:nodetypes="ccccccsccccccsccccscccccccccccccscsccccccsscccccccsscsscccccscsscccccccsscccccscccsccssssccccccccsscccssccccccccccccccccscc" />
      </g>
    </clipPath>
    <clipPath
       clipPathUnits="userSpaceOnUse"
       id="clipPath828-6">
      <g
         id="use830-7"
         inkscape:label="Clip">
        <path
           clip-path="none"
           d="m 355,3391 c -51,-23 -102,-81 -110,-123 -3,-18 -4,-706 -3,-1530 l 3,-1496 31,-39 c 16,-21 48,-47 70,-58 38,-20 59,-20 1214,-20 1087,0 1177,1 1206,17 45,25 92,82 104,129 l 11,41 108,-105 c 89,-87 114,-106 147,-111 51,-9 89,6 137,52 64,62 83,121 56,175 -6,12 -110,121 -231,243 l -220,221 1,94 c 0,83 5,104 35,179 49,121 68,223 68,365 0,138 -16,224 -67,358 l -35,92 -2,695 c -3,683 -3,696 -24,735 -11,22 -40,54 -63,70 l -43,30 -1176,2 c -1122,3 -1179,2 -1217,-16 z m 2385,-887 v -427 l -57,54 c -53,51 -121,99 -118,139 l 74.7088,-68.4576 -200.7681,75.8729 c 0,0 49.0593,-1.4153 8.0593,18.5847 -123,63 -296,104 -437,104 -141,0 -314,-41 -437,-104 l -52,-26 v 0 0 l -131,-84 4.3644,-3.4153 v 0 c 0,0 -4.3644,5.4153 -4.3644,3.4153 0,-3 -25,-28 -55,-57 -59,-56 -134,-152 -180,-231 l -27,-48 H 989 850 1128 l -38,-85 -8.7712,-9.8305 c 0,0 8.7712,12.8305 8.7712,9.8305 0,-3 -9,-37 -20,-77 -15,-58 -40,-211 -40,-250 0,-5 -40,-8 -90,-8 l 90,8 v 0 l 10,-88 h -95 95 v -32 c 0,-43 33,-180 59,-246 12,-29 21,-55 21,-57 0,-3 -61,-5 -135,-5 l 135,5 v 0 l 46,-85 h -158 158 l 48,-69 c 49,-73 180,-205 234,-237 18,-10 32,-22 32,-26 0,-4 -174.2709,-28.63022 -3.5593,-0.58475 L 1480,598 v 0 l 285,-117 -285,117 c 357.0932,-143.88983 206,-94 285,-117 71,-22 99,-25 245,-25 145,0 175,3 245,24 65,20 236.322,3.94068 298,133 l 13,-23 64,-52 c 0,0 2,24 55,-28 l 55,-54 v -78 c 0,-132 144,-118 -1185,-118 -1132,0 -1145,0 -1165,20 -20,20 -20,33 -20,1335 v 1315 h 1185 1185 z m -550,-369 c 36,-9 103,-34 150,-57 70,-34 102,-59 181,-138 83,-82 103,-108 143,-191 25,-52 46,-103 46,-112 0,-15 -13,-17 -115,-17 h -115 v -225 -225 h 105 c 65,0 105,-4 105,-10 0,-6 -13,-36 -29,-68 -90,-179 -250,-311 -451,-373 -108,-34 -293,-34 -400,0 -204,63 -360,192 -456,377 l -36,69 101,3 101,3 v 219 219 l -107,3 c -128,4 -125,-4 -56,138 39,81 59,108 137,185 50,50 116,105 148,123 68,40 177,79 256,92 73,11 208,4 292,-15 z M 2588,602 c 2,-7 -7,-12 -22,-12 -27,0 -35,15 -13,23 17,7 30,3 35,-11 z"
           id="path970"
           style="fill:#2500ff;fill-opacity:1"
           inkscape:connector-curvature="0"
           sodipodi:nodetypes="ccccccsccccccsccccscccccccccccccscsccccccsscccccccsscsscccccscsscccccccsscccccscccsccssssccccccccsscccssccccccccccccccccscc" />
      </g>
    </clipPath>
    <clipPath
       clipPathUnits="userSpaceOnUse"
       id="clipPath828-6-9">
      <g
         inkscape:label="Clip"
         id="use830-7-1">
        <path
           sodipodi:nodetypes="ccccccsccccccsccccscccccccccccccscsccccccsscccccccsscsscccccscsscccccccsscccccscccsccssssccccccccsscccssccccccccccccccccscc"
           inkscape:connector-curvature="0"
           style="fill:#2500ff;fill-opacity:1"
           id="path195"
           d="m 355,3391 c -51,-23 -102,-81 -110,-123 -3,-18 -4,-706 -3,-1530 l 3,-1496 31,-39 c 16,-21 48,-47 70,-58 38,-20 59,-20 1214,-20 1087,0 1177,1 1206,17 45,25 92,82 104,129 l 11,41 108,-105 c 89,-87 114,-106 147,-111 51,-9 89,6 137,52 64,62 83,121 56,175 -6,12 -110,121 -231,243 l -220,221 1,94 c 0,83 5,104 35,179 49,121 68,223 68,365 0,138 -16,224 -67,358 l -35,92 -2,695 c -3,683 -3,696 -24,735 -11,22 -40,54 -63,70 l -43,30 -1176,2 c -1122,3 -1179,2 -1217,-16 z m 2385,-887 v -427 l -57,54 c -53,51 -121,99 -118,139 l 74.7088,-68.4576 -200.7681,75.8729 c 0,0 49.0593,-1.4153 8.0593,18.5847 -123,63 -296,104 -437,104 -141,0 -314,-41 -437,-104 l -52,-26 v 0 0 l -131,-84 4.3644,-3.4153 v 0 c 0,0 -4.3644,5.4153 -4.3644,3.4153 0,-3 -25,-28 -55,-57 -59,-56 -134,-152 -180,-231 l -27,-48 H 989 850 1128 l -38,-85 -8.7712,-9.8305 c 0,0 8.7712,12.8305 8.7712,9.8305 0,-3 -9,-37 -20,-77 -15,-58 -40,-211 -40,-250 0,-5 -40,-8 -90,-8 l 90,8 v 0 l 10,-88 h -95 95 v -32 c 0,-43 33,-180 59,-246 12,-29 21,-55 21,-57 0,-3 -61,-5 -135,-5 l 135,5 v 0 l 46,-85 h -158 158 l 48,-69 c 49,-73 180,-205 234,-237 18,-10 32,-22 32,-26 0,-4 -174.2709,-28.63022 -3.5593,-0.58475 L 1480,598 v 0 l 285,-117 -285,117 c 357.0932,-143.88983 206,-94 285,-117 71,-22 99,-25 245,-25 145,0 175,3 245,24 65,20 236.322,3.94068 298,133 l 13,-23 64,-52 c 0,0 2,24 55,-28 l 55,-54 v -78 c 0,-132 144,-118 -1185,-118 -1132,0 -1145,0 -1165,20 -20,20 -20,33 -20,1335 v 1315 h 1185 1185 z m -550,-369 c 36,-9 103,-34 150,-57 70,-34 102,-59 181,-138 83,-82 103,-108 143,-191 25,-52 46,-103 46,-112 0,-15 -13,-17 -115,-17 h -115 v -225 -225 h 105 c 65,0 105,-4 105,-10 0,-6 -13,-36 -29,-68 -90,-179 -250,-311 -451,-373 -108,-34 -293,-34 -400,0 -204,63 -360,192 -456,377 l -36,69 101,3 101,3 v 219 219 l -107,3 c -128,4 -125,-4 -56,138 39,81 59,108 137,185 50,50 116,105 148,123 68,40 177,79 256,92 73,11 208,4 292,-15 z M 2588,602 c 2,-7 -7,-12 -22,-12 -27,0 -35,15 -13,23 17,7 30,3 35,-11 z"
           clip-path="none" />
      </g>
    </clipPath>
    <clipPath
       id="clip0">
      <rect
         width="71"
         height="55"
         fill="#ffffff"
         id="rect6"
         x="0"
         y="0" />
    </clipPath>
    <clipPath
       id="clip0-5">
      <rect
         width="71"
         height="55"
         fill="#ffffff"
         id="rect6-9"
         x="0"
         y="0" />
    </clipPath>
  </defs>
  <sodipodi:namedview
     pagecolor="#ffffff"
     bordercolor="#666666"
     borderopacity="1"
     objecttolerance="10"
     gridtolerance="10"
     guidetolerance="10"
     inkscape:pageopacity="0"
     inkscape:pageshadow="2"
     inkscape:window-width="1366"
     inkscape:window-height="713"
     id="namedview24"
     showgrid="false"
     inkscape:zoom="1.0114286"
     inkscape:cx="244.70338"
     inkscape:cy="233.33333"
     inkscape:window-x="0"
     inkscape:window-y="27"
     inkscape:window-maximized="1"
     inkscape:current-layer="g20"
     inkscape:pagecheckerboard="0"
     inkscape:document-units="pt" />
  <g
     transform="translate(0.000000,350.000000) scale(0.100000,-0.100000)"
     fill="#000000"
     stroke="none"
     id="g20">
    <path
       d="m 2961.4605,2751.6875 c -214.8512,94.2871 -445.2465,163.7536 -686.1392,203.54 -4.3869,0.7679 -8.7691,-1.1512 -11.029,-4.9891 -29.631,-50.4044 -62.4523,-116.161 -85.4363,-167.8455 -259.0957,37.0992 -516.8619,37.0992 -770.6448,0 -22.9888,52.8334 -57.0019,117.4411 -86.7657,167.8455 -2.2599,3.7099 -6.6421,5.6289 -11.0291,4.9891 -240.7596,-39.6593 -471.15504,-109.1258 -686.1391,-203.54 -1.86113,-0.7674 -3.45638,-2.0479 -4.51514,-3.7099 C 182.75071,2123.5414 63.034998,1514.4535 121.76352,912.9172 c 0.26573,-2.9425 1.99302,-5.75786 4.38472,-7.54697 288.32767,-202.51466 567.62227,-325.45928 841.73039,-406.95012 4.38694,-1.28052 9.03501,0.25429 11.82671,3.70991 64.84036,84.68762 122.63976,173.98425 172.19706,267.88988 2.9247,5.49901 0.133,12.02428 -5.8444,14.19935 -91.6797,33.26203 -178.977,73.81674 -262.95092,119.87045 -6.64214,3.70991 -7.17389,12.79624 -1.0635,17.1464 17.67122,12.66456 35.34719,25.84222 52.22079,39.14703 3.05282,2.42938 7.30683,2.94249 10.89615,1.40768 551.67268,-240.89882 1148.92388,-240.89882 1694.08738,0 3.5893,1.66196 7.8433,1.14884 11.0291,-1.28054 16.8783,-13.30481 34.5495,-26.60961 52.3536,-39.27417 6.1104,-4.35016 5.7116,-13.43649 -0.9304,-17.1464 -83.974,-46.94827 -171.2713,-86.60842 -263.0838,-119.7433 -5.9776,-2.17509 -8.6363,-8.82749 -5.7116,-14.3265 50.6207,-93.77394 108.4202,-183.07057 172.0642,-267.76273 2.6587,-3.58277 7.4397,-5.11758 11.8267,-3.83706 275.4374,81.49084 554.7301,204.43546 843.0579,406.95012 2.5258,1.78911 4.121,4.47733 4.3869,7.41982 70.2861,695.44205 -117.7258,1299.53495 -498.3978,1835.06045 -0.9306,1.7891 -2.5211,3.0696 -4.3822,3.837 z M 1234.2859,1279.1901 c -166.0915,0 -302.94615,145.8397 -302.94615,324.9461 0,179.1064 134.20065,324.9462 302.94615,324.9462 170.07,0 305.6001,-147.1204 302.9414,-324.9462 0,-179.1064 -134.2007,-324.9461 -302.9414,-324.9461 z m 1120.0907,0 c -166.0868,0 -302.9414,145.8397 -302.9414,324.9461 0,179.1064 134.1959,324.9462 302.9414,324.9462 170.0748,0 305.6,-147.1204 302.9461,-324.9462 0,-179.1064 -132.8713,-324.9461 -302.9461,-324.9461 z"
       fill="#23272a"
       id="path2"
       style="mix-blend-mode:multiply;fill:#787878;fill-opacity:1;fill-rule:evenodd;stroke:#ffff00;stroke-width:46.4296;stroke-linecap:butt;stroke-linejoin:round;stroke-miterlimit:4;stroke-dasharray:none;stroke-opacity:0.00183558;paint-order:stroke markers fill"
       inkscape:export-filename="/home/roanfranklin/Documentos/GitHub/remf_rpc_discord/icons/none.png"
       inkscape:export-xdpi="96"
       inkscape:export-ydpi="96" />
  </g>
</svg>
