<?xml version="1.0" encoding="UTF-8" standalone="no"?>
<svg
   xmlns:dc="http://purl.org/dc/elements/1.1/"
   xmlns:cc="http://creativecommons.org/ns#"
   xmlns:rdf="http://www.w3.org/1999/02/22-rdf-syntax-ns#"
   xmlns:svg="http://www.w3.org/2000/svg"
   xmlns="http://www.w3.org/2000/svg"
   xmlns:sodipodi="http://sodipodi.sourceforge.net/DTD/sodipodi-0.dtd"
   xmlns:inkscape="http://www.inkscape.org/namespaces/inkscape"
   id="Capa_1"
   enable-background="new 0 0 508 508"
   height="512"
   viewBox="0 0 508 508"
   width="512"
   version="1.1"
   sodipodi:docname="template.svg"
   inkscape:version="0.92.5 (2060ec1f9f, 2020-04-08)">
  <metadata
     id="metadata11">
    <rdf:RDF>
      <cc:Work
         rdf:about="">
        <dc:format>image/svg+xml</dc:format>
        <dc:type
           rdf:resource="http://purl.org/dc/dcmitype/StillImage" />
      </cc:Work>
    </rdf:RDF>
  </metadata>
  <defs
     id="defs9" />
  <sodipodi:namedview
     pagecolor="#ffffff"
     bordercolor="#666666"
     borderopacity="1"
     objecttolerance="10"
     gridtolerance="10"
     guidetolerance="10"
     inkscape:pageopacity="0"
     inkscape:pageshadow="2"
     inkscape:window-width="1366"
     inkscape:window-height="717"
     id="namedview7"
     showgrid="false"
     inkscape:zoom="0.921875"
     inkscape:cx="256"
     inkscape:cy="256"
     inkscape:window-x="0"
     inkscape:window-y="27"
     inkscape:window-maximized="1"
     inkscape:current-layer="Capa_1" />
  <g
     id="g4">
    <path
       d="m 264.5755,455.46814 c 0,5.38686 -4.26516,9.7588 -9.49923,9.7588 -5.23408,0 -9.49923,-4.37194 -9.49923,-9.7588 0,-5.37712 4.26515,-9.75881 9.49923,-9.75881 5.23407,0 9.49923,4.38171 9.49923,9.75881 z M 89.434401,215.40149 c -5.246425,0 -9.49923,4.36903 -9.49923,9.75881 0,5.38981 4.252805,9.75882 9.49923,9.75882 h 19.353729 v 97.58806 c 0,5.38977 4.25281,9.7588 9.49923,9.7588 5.24642,0 9.49923,-4.36901 9.49923,-9.7588 v -97.58806 h 19.35374 c 5.24641,0 9.49923,-4.36902 9.49923,-9.75882 0,-5.38978 -4.25282,-9.75881 -9.49923,-9.75881 z M 418.46302,139.2828 c 21.99927,0 39.89677,18.38658 39.89677,40.98699 0,22.60043 -17.8975,40.98698 -39.89677,40.98698 -21.99926,0 -39.89677,-18.38656 -39.89677,-40.98698 0,-22.60042 17.89751,-40.98699 39.89677,-40.98699 z m -20.89831,40.98699 c 0,11.83842 9.3748,21.46938 20.89831,21.46938 11.52352,0 20.89831,-9.63096 20.89831,-21.46938 0,-11.83841 -9.37479,-21.46938 -20.89831,-21.46938 -11.52351,0 -20.89831,9.63097 -20.89831,21.46938 z m -5.69953,284.95715 H 297.8228 c -5.444,0 -9.84025,-4.7301 -9.47832,-10.41168 0.33056,-5.1868 4.75245,-9.10593 9.81175,-9.10593 h 84.20972 v -19.5176 h -70.2943 c -15.73927,0 -28.49769,-13.10706 -28.49769,-29.27643 v -25.37291 c 0,-16.16937 12.75842,-29.27641 28.49769,-29.27641 h 70.2943 V 301.27899 H 251.27658 c -5.24642,0 -9.49923,-4.36901 -9.49923,-9.75882 V 110.00641 c 0,-5.3898 4.25281,-9.75881 9.49923,-9.75881 H 382.36595 V 74.874689 c 0,-5.389789 -4.2528,-9.758807 -9.49923,-9.758807 H 137.28583 c -5.24643,0 -9.49924,4.369018 -9.49924,9.758807 v 96.612181 h 85.49307 c 5.24642,0 9.49923,4.36903 9.49923,9.75881 v 195.17614 c 0,5.38977 -4.25281,9.7588 -9.49923,9.7588 h -85.49307 v 59.52872 h 84.20973 c 5.05928,0 9.48117,3.91913 9.81175,9.10594 0.36192,5.68157 -4.03432,10.41167 -9.47834,10.41167 h -94.04237 c -5.24642,0 -9.49923,-4.36902 -9.49923,-9.7588 V 386.18061 H 23.295064 c -5.246425,0 -9.499231,-4.36902 -9.499231,-9.75881 V 181.24566 c 0,-5.38978 4.252806,-9.7588 9.499231,-9.7588 H 108.78813 V 74.874689 c 0,-16.169366 12.75842,-29.276419 28.4977,-29.276419 h 235.58089 c 15.73927,0 28.49769,13.107053 28.49769,29.276419 V 100.2476 h 85.49307 c 5.24642,0 9.49923,4.36901 9.49923,9.75881 v 181.51376 c 0,5.3898 -4.25281,9.75882 -9.49923,9.75882 h -85.49307 v 40.98699 h 24.698 c 15.73927,0 28.49769,13.10706 28.49769,29.27643 v 25.3729 c 0,16.16937 -12.75842,29.27642 -28.49769,29.27642 h -24.698 v 29.27642 c 0,5.38978 -4.2528,9.7588 -9.49923,9.75879 z M 203.78043,191.00448 H 32.794294 V 366.663 H 203.78043 Z M 426.06241,361.78359 H 312.07165 c -5.23788,0 -9.49923,4.37779 -9.49923,9.7588 v 25.37291 c 0,5.38099 4.26135,9.7588 9.49923,9.7588 h 113.99076 c 5.23788,0 9.49923,-4.37779 9.49923,-9.7588 v -25.37291 c 0,-5.38101 -4.26135,-9.7588 -9.49923,-9.7588 z M 260.77581,281.76137 H 407.91413 L 320.21914,197.5458 c -10.91271,-10.479 -28.00943,-10.48096 -38.9212,0 l -20.52213,19.70889 z M 477.35825,119.7652 H 260.77581 v 70.77183 l 7.54808,-7.24885 c 18.18818,-17.46631 46.68302,-17.46533 64.86929,0 l 102.54229,98.47319 h 41.62278 z"
       id="path2"
       style="stroke:#000000;stroke-width:10.13374138;stroke-miterlimit:4;stroke-dasharray:none;stroke-opacity:1"
       inkscape:connector-curvature="0" />
  </g>
</svg>
